<?xml version="1.0"?>
<svg xmlns="http://www.w3.org/2000/svg" height="512px" viewBox="0 -50 512.001 512" width="512px"><g><path d="m342.203125 76.804688h52.683594c14.933593 0 27.890625-8.574219 34.242187-21.054688h46.539063v-30h-44.53125c-5.242188-14.976562-19.507813-25.75-36.25-25.75h-87.210938c-26.421875 0-47.921875 21.496094-47.921875 47.921875v148.265625h82.449219zm2.296875-59.816407h30v30h-30zm0 0" data-original="#000000" class="active-path" data-old_color="#000000" fill="#FFFFFF"/><path d="m394.3125 226.1875h-288.992188c-21.492187 0-38.976562 17.484375-38.976562 38.972656 0 21.492188 17.484375 38.976563 38.976562 38.976563h288.992188c21.488281 0 38.972656-17.484375 38.972656-38.972657 0-21.492187-17.484375-38.976562-38.972656-38.976562zm0 0" data-original="#000000" class="active-path" data-old_color="#000000" fill="#FFFFFF"/><path d="m473.023438 334.136719h-434.046876c-21.492187 0-38.976562 17.484375-38.976562 38.976562 0 21.488281 17.484375 38.972657 38.976562 38.972657h434.050782c21.488281 0 38.972656-17.484376 38.972656-38.972657 0-21.492187-17.484375-38.976562-38.976562-38.976562zm0 0" data-original="#000000" class="active-path" data-old_color="#000000" fill="#FFFFFF"/><path d="m91.105469 165.90625c5.910156 11.277344 9.410156 22.042969 11.464843 30.351562.914063-.039062 55.898438-.070312 55.898438-.070312-9.199219-31.96875-25.117188-54.628906-47.480469-67.492188-22.8125-13.121093-48.644531-14.1875-68.226562-12.167968 25.089843 13.558594 39.859375 33.1875 48.34375 49.378906zm0 0" data-original="#000000" class="active-path" data-old_color="#000000" fill="#FFFFFF"/></g> </svg>
